{
	"asset": {
		"generator": "Khronos glTF Blender I/O v3.5.30",
		"version": "2.0"
	},
	"scene": 0,
	"scenes": [
		{
			"name": "Scene",
			"nodes": [
				0
			]
		}
	],
	"nodes": [
		{
			"mesh": 0,
			"name": "Cube",
			"translation": [
				2.152611255645752,
				0,
				0
			]
		}
	],
	"animations": [
		{
			"channels": [
				{
					"sampler": 0,
					"target": {
						"node": 0,
						"path": "translation"
					}
				},
				{
					"sampler": 1,
					"target": {
						"node": 0,
						"path": "rotation"
					}
				},
				{
					"sampler": 2,
					"target": {
						"node": 0,
						"path": "scale"
					}
				}
			],
			"name": "Cube",
			"samplers": [
				{
					"input": 4,
					"interpolation": "LINEAR",
					"output": 5
				},
				{
					"input": 4,
					"interpolation": "LINEAR",
					"output": 6
				},
				{
					"input": 4,
					"interpolation": "LINEAR",
					"output": 7
				}
			]
		}
	],
	"materials": [
		{
			"doubleSided": true,
			"name": "Material.002",
			"pbrMetallicRoughness": {
				"baseColorFactor": [
					0.8000000715255737,
					0.021942060440778732,
					0,
					1
				],
				"metallicFactor": 0,
				"roughnessFactor": 0.5
			}
		}
	],
	"meshes": [
		{
			"name": "Cube.011",
			"primitives": [
				{
					"attributes": {
						"POSITION": 0,
						"TEXCOORD_0": 1,
						"NORMAL": 2
					},
					"indices": 3,
					"material": 0
				}
			]
		}
	],
	"accessors": [
		{
			"bufferView": 0,
			"componentType": 5126,
			"count": 24,
			"max": [
				1,
				1,
				1
			],
			"min": [
				-1,
				-1,
				-1
			],
			"type": "VEC3"
		},
		{
			"bufferView": 1,
			"componentType": 5126,
			"count": 24,
			"type": "VEC2"
		},
		{
			"bufferView": 2,
			"componentType": 5126,
			"count": 24,
			"type": "VEC3"
		},
		{
			"bufferView": 3,
			"componentType": 5123,
			"count": 36,
			"type": "SCALAR"
		},
		{
			"bufferView": 4,
			"componentType": 5126,
			"count": 3,
			"max": [
				0.08333333333333333
			],
			"min": [
				0
			],
			"type": "SCALAR"
		},
		{
			"bufferView": 5,
			"componentType": 5126,
			"count": 3,
			"type": "VEC3"
		},
		{
			"bufferView": 6,
			"componentType": 5126,
			"count": 3,
			"type": "VEC4"
		},
		{
			"bufferView": 7,
			"componentType": 5126,
			"count": 3,
			"type": "VEC3"
		}
	],
	"bufferViews": [
		{
			"buffer": 0,
			"byteLength": 288,
			"byteOffset": 0,
			"target": 34962
		},
		{
			"buffer": 0,
			"byteLength": 192,
			"byteOffset": 288,
			"target": 34962
		},
		{
			"buffer": 0,
			"byteLength": 288,
			"byteOffset": 480,
			"target": 34962
		},
		{
			"buffer": 0,
			"byteLength": 72,
			"byteOffset": 768,
			"target": 34963
		},
		{
			"buffer": 0,
			"byteLength": 12,
			"byteOffset": 840
		},
		{
			"buffer": 0,
			"byteLength": 36,
			"byteOffset": 852
		},
		{
			"buffer": 0,
			"byteLength": 48,
			"byteOffset": 888
		},
		{
			"buffer": 0,
			"byteLength": 36,
			"byteOffset": 936
		}
	],
	"buffers": [
		{
			"byteLength": 972,
			"uri": "test2.bin"
		}
	]
}